<svg xmlns="http://www.w3.org/2000/svg" xmlns:xlink="http://www.w3.org/1999/xlink" version="1.1" width="256" height="256" viewBox="0 0 256 256" xml:space="preserve">

<defs>
</defs>
<g style="stroke: none; stroke-width: 0; stroke-dasharray: none; stroke-linecap: butt; stroke-linejoin: miter; stroke-miterlimit: 10; fill: none; fill-rule: nonzero; opacity: 1;" transform="translate(1.4065934065934016 1.4065934065934016) scale(2.81 2.81)" >
	<circle cx="45" cy="45" r="45" style="stroke: none; stroke-width: 1; stroke-dasharray: none; stroke-linecap: butt; stroke-linejoin: miter; stroke-miterlimit: 10; fill: rgb(178,22,22); fill-rule: nonzero; opacity: 1;" transform="  matrix(1 0 0 1 0 0) "/>
	<path d="M 20.1 27.7 h 10.2 c 0.8 0 1.4 0.6 1.4 1.4 v 27.2 c 0 0.8 -0.6 1.4 -1.4 1.4 H 20.1 V 27.7 z" style="stroke: none; stroke-width: 1; stroke-dasharray: none; stroke-linecap: butt; stroke-linejoin: miter; stroke-miterlimit: 10; fill: rgb(255,255,255); fill-rule: nonzero; opacity: 1;" transform=" matrix(1 0 0 1 0 0) " stroke-linecap="round" />
	<path d="M 66.1 50.3 c 2.1 0 3.8 1.7 3.8 3.8 s -1.7 3.8 -3.8 3.8 H 54.2 c 2.1 3.7 2.1 15.1 -2.8 16.5 c -0.9 0.3 -1.9 -0.5 -2 -1.4 c -0.9 -8 -5.7 -17.9 -10.7 -18.2 h -3.9 V 30.9 h 2 c 1.1 0 2.1 -0.4 3 -1 c 2.2 -1.5 6 -2.4 9.6 -2.3 h 1.8 v 0 h 12 c 2.1 0 3.8 1.7 3.8 3.8 s -1.7 3.8 -3.8 3.8 H 65 c 2.1 0 3.8 1.7 3.8 3.8 s -1.7 3.8 -3.8 3.8 h 1.1 c 2.1 0 3.8 1.7 3.8 3.8 S 68.2 50.3 66.1 50.3 z" style="stroke: none; stroke-width: 1; stroke-dasharray: none; stroke-linecap: butt; stroke-linejoin: miter; stroke-miterlimit: 10; fill: rgb(255,255,255); fill-rule: nonzero; opacity: 1;" transform=" matrix(1 0 0 1 0 0) " stroke-linecap="round" />
</g>
</svg>